<?xml version="1.0" standalone="no"?>
<!DOCTYPE svg PUBLIC "-//W3C//DTD SVG 20010904//EN"
 "http://www.w3.org/TR/2001/REC-SVG-20010904/DTD/svg10.dtd">
<svg version="1.0" xmlns="http://www.w3.org/2000/svg"
 width="331.000000pt" height="55.000000pt" viewBox="0 0 331.000000 55.000000"
 preserveAspectRatio="xMidYMid meet">

<g transform="translate(0.000000,55.000000) scale(0.100000,-0.100000)"
fill="#000000" stroke="none">
<path d="M264 505 c-4 -11 -21 -15 -55 -15 l-49 0 0 -34 c0 -19 -6 -38 -12
-42 -21 -13 -47 -11 -52 3 -3 7 -10 13 -16 13 -6 0 -10 -63 -9 -180 l0 -180
32 0 c54 0 57 10 57 169 l0 146 50 -3 50 -4 0 -73 c0 -62 3 -74 18 -78 16 -4
16 -5 0 -6 -16 -1 -18 -12 -18 -76 l0 -75 43 0 c24 0 48 5 55 12 8 8 12 58 12
160 l0 148 70 0 c66 0 86 9 58 27 -7 4 -19 19 -26 32 -8 12 -9 20 -4 17 14 -8
43 4 36 15 -3 5 -34 9 -70 9 -41 0 -64 4 -64 11 0 8 -4 8 -14 0 -19 -16 -75
-11 -69 6 3 7 0 13 -6 13 -7 0 -14 -7 -17 -15z m-59 -35 c4 -6 1 -18 -6 -26
-6 -8 -9 -17 -5 -21 13 -13 50 -13 58 -1 5 9 8 6 8 -9 0 -20 -5 -23 -40 -23
l-40 0 0 45 c0 43 11 58 25 35z m95 -1 c0 -5 -5 -7 -12 -3 -7 4 -8 3 -4 -4 4
-7 20 -10 37 -7 21 4 29 1 29 -10 0 -9 -6 -12 -15 -9 -8 4 -15 2 -15 -4 0 -6
6 -12 12 -14 9 -3 7 -10 -7 -24 -17 -17 -18 -17 -12 -1 4 11 2 17 -9 17 -8 0
-12 -4 -9 -10 3 -5 0 -10 -7 -10 -10 0 -9 -3 2 -11 11 -7 12 -12 3 -15 -7 -3
-9 -13 -6 -22 3 -11 2 -13 -4 -5 -5 6 -10 41 -11 77 -3 55 -1 66 12 66 9 0 16
-5 16 -11z m125 1 c3 -6 -1 -7 -12 -4 -10 3 -7 -1 6 -9 l25 -15 -33 -17 c-37
-18 -47 -15 -36 12 5 10 7 24 6 31 -2 14 35 16 44 2z m-178 -8 c8 -5 2 -13
-18 -24 -16 -9 -29 -13 -29 -7 0 5 7 12 15 15 8 4 12 10 9 15 -6 11 7 12 23 1z
m216 -49 c-7 -2 -19 -2 -25 0 -7 3 -2 5 12 5 14 0 19 -2 13 -5z m-313 -33 c0
-5 -7 -10 -15 -10 -8 0 -15 -5 -15 -11 0 -5 4 -8 9 -4 17 10 24 -61 9 -101
-10 -30 -11 -38 0 -42 9 -3 10 -8 2 -17 -7 -9 -7 -21 0 -40 13 -34 -9 -75 -40
-75 -17 0 -20 7 -20 46 0 27 4 43 10 39 6 -3 10 -14 10 -23 0 -15 2 -15 10 -2
12 19 13 53 1 45 -13 -7 -17 2 -25 50 -4 26 -3 35 3 26 7 -11 10 -8 16 10 4
13 14 31 22 41 10 11 11 18 4 23 -6 3 -11 2 -11 -4 0 -6 -7 -7 -17 -4 -12 5
-14 3 -8 -7 5 -9 4 -11 -3 -6 -18 11 -15 39 3 32 8 -3 15 -1 15 4 0 6 -6 10
-12 11 -7 0 1 7 17 14 37 17 35 17 35 5z m190 -83 c-9 -30 -8 -42 1 -53 9 -11
9 -18 1 -26 -7 -7 -12 -17 -12 -22 0 -7 3 -6 8 1 4 6 8 -9 9 -34 2 -68 -18
-38 -28 39 l-8 63 4 -70 c1 -38 6 -79 11 -89 5 -13 4 -17 -4 -12 -6 3 -13 2
-17 -4 -3 -5 -13 -10 -21 -10 -11 0 -14 14 -13 58 l1 57 12 -55 c17 -78 26
-41 15 61 -10 92 -4 151 13 128 7 -10 8 -8 5 9 -3 12 -2 20 3 17 4 -3 11 5 15
18 7 21 8 20 12 -8 3 -16 0 -47 -7 -68z m-245 -7 c3 -5 1 -10 -4 -10 -6 0 -11
5 -11 10 0 6 2 10 4 10 3 0 8 -4 11 -10z"/>
<path d="M111 104 c0 -11 3 -14 6 -6 3 7 2 16 -1 19 -3 4 -6 -2 -5 -13z"/>
<path d="M1314 505 c-4 -11 -21 -15 -56 -15 l-49 0 3 -52 3 -53 48 -3 47 -3 0
-74 c0 -62 3 -74 18 -78 16 -4 16 -5 0 -6 -16 -1 -18 -12 -18 -76 l0 -75 43 0
c24 0 48 5 55 12 8 8 12 58 12 160 l0 148 70 0 c66 0 86 9 58 27 -7 4 -19 19
-26 32 -8 12 -9 20 -4 17 14 -8 43 4 36 15 -3 5 -34 9 -70 9 -41 0 -64 4 -64
11 0 8 -4 8 -14 0 -19 -16 -75 -11 -69 6 3 7 0 13 -6 13 -7 0 -14 -7 -17 -15z
m-59 -35 c4 -6 1 -18 -6 -26 -6 -8 -9 -17 -5 -21 13 -13 50 -13 58 -1 5 9 8 6
8 -9 0 -20 -5 -23 -40 -23 l-40 0 0 45 c0 43 11 58 25 35z m95 -1 c0 -5 -5 -7
-12 -3 -7 4 -8 3 -4 -4 4 -7 20 -10 37 -7 21 4 29 1 29 -10 0 -9 -6 -12 -15
-9 -8 4 -15 2 -15 -4 0 -6 6 -12 12 -14 9 -3 7 -10 -7 -24 -17 -17 -18 -17
-12 -1 4 11 2 17 -9 17 -8 0 -12 -4 -9 -10 3 -5 0 -10 -7 -10 -10 0 -9 -3 2
-11 11 -7 12 -12 3 -15 -7 -3 -9 -13 -6 -22 3 -11 2 -13 -4 -5 -5 6 -10 41
-11 77 -3 55 -1 66 12 66 9 0 16 -5 16 -11z m125 1 c3 -6 -1 -7 -12 -4 -10 3
-7 -1 6 -9 l25 -15 -33 -17 c-37 -18 -47 -15 -36 12 5 10 7 24 6 31 -2 14 35
16 44 2z m-178 -8 c8 -5 2 -13 -18 -24 -16 -9 -29 -13 -29 -7 0 5 7 12 15 15
8 4 12 10 9 15 -6 11 7 12 23 1z m216 -49 c-7 -2 -19 -2 -25 0 -7 3 -2 5 12 5
14 0 19 -2 13 -5z m-123 -116 c-9 -30 -8 -42 1 -53 9 -11 9 -18 1 -26 -7 -7
-12 -17 -12 -22 0 -7 3 -6 8 1 4 6 8 -9 9 -34 2 -68 -18 -38 -28 39 l-8 63 4
-70 c1 -38 6 -79 11 -89 5 -13 4 -17 -4 -12 -6 3 -13 2 -17 -4 -3 -5 -13 -10
-21 -10 -11 0 -14 14 -13 58 l1 57 12 -55 c17 -78 26 -41 15 61 -10 92 -4 151
13 128 7 -10 8 -8 5 9 -3 12 -2 20 3 17 4 -3 11 5 15 18 7 21 8 20 12 -8 3
-16 0 -47 -7 -68z"/>
<path d="M1912 432 c-7 -5 -10 -16 -6 -25 7 -20 21 -22 27 -4 2 7 8 8 13 3 5
-5 4 -11 -4 -13 -6 -3 -9 -10 -6 -15 4 -7 2 -8 -4 -4 -7 4 -12 1 -13 -6 0 -7
-5 -2 -11 12 l-10 25 -10 -27 c-6 -19 -6 -33 2 -45 10 -16 10 -15 5 4 -5 18
-3 22 9 17 16 -6 18 -64 2 -64 -4 0 -5 -11 -2 -24 4 -17 1 -26 -10 -30 -29
-11 -31 -6 -23 41 12 62 5 66 -10 6 -7 -26 -17 -54 -23 -61 -6 -7 -12 -25 -13
-40 -1 -15 -6 -42 -10 -60 l-8 -33 39 3 c34 3 39 7 48 36 8 28 13 33 35 30 20
-2 27 -11 34 -39 7 -31 13 -38 40 -42 44 -7 50 3 36 57 -6 26 -9 65 -6 86 4
29 1 40 -8 40 -12 0 -43 92 -47 143 -1 15 -8 27 -14 27 -7 0 -18 2 -26 5 -7 3
-19 1 -26 -3z m53 -99 c-3 -9 2 -27 11 -40 8 -14 13 -27 10 -31 -3 -3 -6 0 -6
6 0 7 -4 12 -10 12 -5 0 -10 -8 -10 -17 -1 -15 -2 -16 -9 -3 -7 13 -8 41 -3
88 1 7 7 10 13 7 6 -4 8 -14 4 -22z m-25 -83 c0 -5 -5 -10 -11 -10 -5 0 -7 5
-4 10 3 6 8 10 11 10 2 0 4 -4 4 -10z m-7 -41 c-6 -6 -9 -17 -7 -24 4 -8 -8
-14 -33 -17 -21 -3 -39 -4 -40 -4 -8 6 12 46 23 46 8 0 11 -7 8 -17 -2 -10 1
-8 7 5 7 13 18 21 26 18 7 -3 13 0 13 6 0 6 3 8 7 5 4 -4 2 -12 -4 -18z m77
13 c0 -4 -6 -14 -12 -21 -10 -11 -10 -13 0 -7 6 4 12 3 12 -2 0 -6 -16 -10
-35 -10 -39 0 -39 1 -25 29 10 18 60 28 60 11z m0 -98 c0 -23 -5 -34 -14 -34
-20 0 -32 60 -15 71 20 12 29 1 29 -37z m-150 14 c0 -9 4 -8 11 2 9 12 10 12
5 -3 -3 -10 -6 -24 -6 -30 0 -7 -4 -6 -10 3 -6 10 -10 11 -10 3 0 -7 -4 -13
-10 -13 -11 0 -14 33 -3 43 10 11 23 8 23 -5z"/>
<path d="M531 250 l0 -180 33 0 c19 0 38 6 44 13 7 8 13 74 15 163 l3 149 2
-163 2 -163 48 3 47 3 5 90 5 90 18 -32 c10 -18 23 -33 31 -33 15 0 56 42 56
57 0 6 7 16 15 23 13 11 15 0 15 -89 l0 -102 43 3 42 3 3 73 c2 52 -1 72 -10
72 -9 0 -9 3 0 12 8 8 12 45 12 100 l0 88 -34 0 c-26 0 -45 -10 -84 -45 -27
-25 -59 -46 -71 -48 -24 -4 -41 -17 -21 -17 9 0 10 -3 1 -13 -6 -8 -10 -16 -8
-18 1 -2 -8 7 -20 21 -12 14 -22 21 -23 16 0 -11 -30 14 -30 25 0 5 14 16 31
25 17 8 28 11 25 6 -10 -17 4 -41 24 -39 20 1 16 14 -20 55 -17 21 -26 23 -72
19 -29 -3 -53 -6 -53 -7 0 -9 -45 -3 -49 7 -3 7 -10 13 -16 13 -6 0 -10 -63
-9 -180z m179 156 c0 -2 -11 -11 -25 -20 -21 -14 -25 -14 -25 -2 0 8 10 17 23
19 12 2 23 5 25 6 1 0 2 -1 2 -3z m-63 -38 c-3 -7 -5 -2 -5 12 0 14 2 19 5 13
2 -7 2 -19 0 -25z m265 23 c6 17 28 2 27 -19 -1 -15 -2 -15 -6 1 -2 9 -9 15
-14 11 -5 -3 -6 -11 -2 -17 4 -7 0 -6 -10 2 -14 11 -17 11 -17 0 0 -11 -2 -11
-10 1 -5 8 -10 10 -10 4 0 -16 35 -45 45 -37 4 5 5 2 1 -5 -5 -7 -10 -11 -13
-8 -6 6 -63 -31 -75 -49 -17 -23 -7 14 17 64 14 28 30 49 35 46 6 -3 10 0 10
7 0 10 2 10 9 -1 7 -11 9 -11 13 0z m-302 -11 c0 -5 -7 -10 -15 -10 -8 0 -15
-5 -15 -11 0 -5 4 -8 9 -4 17 10 24 -61 9 -101 -10 -30 -11 -38 0 -42 9 -3 10
-8 2 -17 -7 -9 -7 -21 0 -40 13 -34 -9 -75 -40 -75 -17 0 -20 7 -20 46 0 27 4
43 10 39 6 -3 10 -14 10 -23 0 -15 2 -15 10 -2 12 19 13 53 1 45 -13 -7 -17 2
-25 50 -4 26 -3 35 3 26 7 -11 10 -8 16 10 4 13 14 31 22 41 10 11 11 18 4 23
-6 3 -11 2 -11 -4 0 -6 -7 -7 -17 -4 -12 5 -14 3 -8 -7 5 -9 4 -11 -3 -6 -18
11 -15 39 3 32 8 -3 15 -1 15 4 0 6 -6 10 -12 11 -7 0 1 7 17 14 37 17 35 17
35 5z m138 -25 c-3 -3 -9 2 -12 12 -6 14 -5 15 5 6 7 -7 10 -15 7 -18z m72
-44 c-6 -12 -15 -21 -21 -21 -6 0 -7 5 -4 10 3 6 1 10 -4 10 -15 0 -14 -23 2
-39 10 -11 8 -11 -11 -2 -18 10 -20 15 -11 32 9 18 49 41 57 34 2 -2 -1 -13
-8 -24z m-139 -3 c15 -19 18 -40 19 -126 0 -79 -3 -103 -12 -99 -7 2 -12 18
-12 36 1 17 -2 31 -6 31 -4 0 -7 -16 -6 -35 1 -19 -2 -35 -6 -35 -3 0 -7 27
-7 60 0 33 -3 64 -6 69 -6 11 5 121 12 121 3 0 13 -10 24 -22z m250 -24 l-9
-39 -1 36 c-1 20 2 39 6 42 12 13 13 0 4 -39z m-376 6 c3 -5 1 -10 -4 -10 -6
0 -11 5 -11 10 0 6 2 10 4 10 3 0 8 -4 11 -10z m352 -42 c-3 -12 2 -27 14 -39
14 -14 19 -32 18 -71 -1 -31 -4 -43 -7 -28 l-5 25 -7 -25 c-6 -25 -6 -25 -23
10 -14 27 -16 48 -11 108 5 54 9 70 16 57 6 -9 8 -26 5 -37z m-190 -120 c-2
-29 -3 -8 -3 47 0 55 1 79 3 53 2 -26 2 -71 0 -100z m53 121 c7 -11 9 -23 6
-26 -3 -3 -9 3 -13 13 -3 10 -11 22 -17 26 -8 5 -7 8 1 8 7 0 17 -9 23 -21z
m60 -13 c0 -2 -12 -11 -27 -20 l-28 -17 24 20 c23 21 31 25 31 17z m57 -138
c-3 -8 -6 -5 -6 6 -1 11 2 17 5 13 3 -3 4 -12 1 -19z"/>
<path d="M571 104 c0 -11 3 -14 6 -6 3 7 2 16 -1 19 -3 4 -6 -2 -5 -13z"/>
<path d="M670 175 c-8 -9 -8 -15 -2 -15 12 0 26 19 19 26 -2 2 -10 -2 -17 -11z"/>
<path d="M986 415 c-3 -9 3 -19 15 -25 14 -8 18 -17 14 -31 -4 -12 -2 -19 6
-19 9 0 11 -33 6 -135 l-5 -136 86 3 87 3 3 38 3 37 -55 0 c-58 0 -62 3 -50
48 4 14 14 22 28 22 28 0 46 18 46 47 0 19 -5 23 -30 23 -53 0 -35 46 20 52
33 3 35 5 38 46 l3 42 -104 0 c-84 0 -106 -3 -111 -15z m184 -5 c0 -5 -18 -9
-41 -8 -37 1 -68 -17 -53 -31 3 -3 9 1 14 8 8 13 19 12 65 -4 16 -5 17 -5 5 4
-13 9 -13 11 3 11 25 0 21 -27 -5 -34 -35 -9 -130 -7 -124 3 3 5 -4 20 -15 35
l-20 26 85 0 c50 0 86 -4 86 -10z m-111 -97 c1 9 5 17 10 17 16 0 20 -28 6
-47 -18 -23 -19 -62 -2 -69 17 -6 10 -64 -8 -64 -20 0 -25 24 -24 108 0 52 3
71 9 57 7 -17 9 -17 9 -2z m68 -39 c-3 -3 -12 -4 -19 -1 -8 3 -5 6 6 6 11 1
17 -2 13 -5z m-44 -34 c3 -11 1 -18 -4 -14 -5 3 -9 12 -9 20 0 20 7 17 13 -6z
m57 5 c0 -9 -6 -12 -15 -9 -8 4 -12 10 -9 15 8 14 24 10 24 -6z m8 -122 c-16
-2 -28 -9 -28 -14 0 -5 3 -8 8 -8 21 4 52 -2 52 -9 0 -9 -106 -15 -130 -7 -9
3 -16 14 -17 25 -2 18 4 20 70 19 40 -1 60 -4 45 -6z"/>
<path d="M1593 423 c-9 -3 -13 -29 -13 -78 0 -49 4 -75 13 -79 10 -5 10 -7 0
-12 -9 -4 -13 -33 -13 -95 l0 -90 43 3 c41 3 42 4 45 41 3 36 4 38 21 23 16
-15 17 -14 13 17 -3 18 -1 28 4 24 5 -5 9 -25 9 -44 0 -42 25 -64 52 -47 26
16 26 32 0 56 -25 24 -26 48 0 48 10 0 13 6 9 16 -3 8 -2 13 3 10 5 -3 12 1
15 10 9 24 7 114 -3 114 -5 0 -31 20 -58 44 -46 42 -52 44 -86 36 -21 -4 -35
-4 -31 1 6 10 -3 11 -23 2z m145 -82 c-7 -9 -13 -17 -13 -18 -1 -1 -9 12 -19
30 -11 18 -13 26 -5 20 21 -21 34 -15 14 7 -10 11 -22 17 -28 13 -6 -4 -7 -1
-2 6 5 9 15 5 36 -15 24 -23 27 -30 17 -43z m-101 11 c2 -34 0 -43 -7 -32 -8
11 -10 3 -8 -27 1 -24 6 -43 10 -43 4 0 7 -21 7 -47 -1 -27 -4 -39 -6 -28 -3
11 -10 26 -16 33 -8 10 -7 16 4 23 11 7 11 9 0 9 -7 0 -11 6 -8 14 3 8 -1 20
-9 26 -8 8 -14 31 -14 60 0 50 5 60 29 60 12 0 17 -12 18 -48z m21 -114 l-2
-163 -5 145 c-6 135 -4 180 5 180 2 0 3 -73 2 -162z m72 41 c0 -10 -3 -19 -7
-19 -5 0 -18 -3 -30 -6 -21 -6 -23 -3 -23 41 l0 46 30 -21 c17 -12 30 -30 30
-41z m40 23 c0 -5 -7 -17 -15 -28 -14 -19 -14 -19 -15 2 0 11 3 24 7 27 9 10
23 9 23 -1z m-50 -68 c0 -8 -4 -12 -10 -9 -5 3 -10 2 -10 -3 0 -5 -6 -9 -13
-9 -8 0 -14 6 -14 13 0 7 3 11 7 9 3 -2 12 0 20 6 20 12 20 12 20 -7z m53 -1
c-7 -2 -19 -2 -25 0 -7 3 -2 5 12 5 14 0 19 -2 13 -5z m-16 -19 c-3 -3 -12 -4
-19 -1 -8 3 -5 6 6 6 11 1 17 -2 13 -5z m-140 -56 c6 -24 14 -51 18 -60 4 -10
3 -18 -2 -18 -10 0 -36 69 -39 103 -3 34 13 16 23 -25z m-15 -53 c3 -14 1 -25
-3 -25 -5 0 -9 11 -9 25 0 14 2 25 4 25 2 0 6 -11 8 -25z"/>
<path d="M1602 310 c0 -14 2 -19 5 -12 2 6 2 18 0 25 -3 6 -5 1 -5 -13z"/>
<path d="M2065 421 c-6 -11 15 -105 22 -98 9 10 21 67 12 62 -5 -4 -9 -13 -9
-22 0 -22 -6 -14 -14 20 -6 26 -5 28 21 25 19 -2 29 -10 31 -23 6 -39 12 -50
21 -37 4 7 6 -6 5 -28 -1 -23 -4 -44 -7 -47 -3 -3 0 -11 7 -19 16 -16 15 -56
-2 -62 -7 -2 -15 9 -18 27 -6 31 -34 65 -34 42 0 -6 5 -11 11 -11 5 0 7 -5 4
-11 -9 -14 4 -81 14 -75 5 3 5 -13 1 -34 -8 -45 -8 -45 37 -54 26 -6 34 -4 43
14 6 12 9 28 6 36 -3 8 -2 12 3 9 12 -7 24 31 15 46 -4 7 -3 9 3 6 14 -9 37
48 27 64 -4 7 -3 10 3 6 14 -9 37 48 27 64 -4 7 -3 10 3 6 13 -8 47 63 35 75
-5 5 -25 11 -44 14 l-36 6 -27 -83 c-16 -46 -30 -78 -33 -71 -2 6 -9 9 -15 5
-7 -4 -8 0 -4 11 4 10 0 46 -9 82 l-16 64 -39 0 c-21 0 -40 -4 -44 -9z m82
-43 c-3 -8 -6 -5 -6 6 -1 11 2 17 5 13 3 -3 4 -12 1 -19z m133 -20 c0 6 4 12
10 12 15 0 1 -23 -25 -43 l-24 -17 11 31 c8 23 13 27 19 17 6 -10 9 -10 9 0z
m-4 -56 c-1 -16 -6 -29 -12 -29 -12 0 -12 10 1 40 10 24 12 22 11 -11z m-41
-49 c-4 -10 -8 -31 -11 -47 -2 -16 -6 -31 -10 -35 -3 -3 -4 12 0 34 3 22 7 46
8 53 1 6 6 12 11 12 5 0 6 -8 2 -17z m-44 -50 c-12 -20 -14 -14 -5 12 4 9 9
14 11 11 3 -2 0 -13 -6 -23z m11 -78 c3 -15 1 -22 -5 -18 -7 4 -8 -1 -3 -13 5
-12 4 -16 -3 -9 -8 8 -5 65 4 65 1 0 5 -11 7 -25z m-32 -15 c0 -11 -4 -20 -10
-20 -5 0 -10 9 -10 20 0 11 5 20 10 20 6 0 10 -9 10 -20z"/>
<path d="M2356 415 c-3 -9 3 -19 15 -25 14 -8 18 -17 14 -31 -4 -12 -2 -19 6
-19 9 0 11 -33 6 -135 l-5 -136 86 3 87 3 3 38 3 37 -55 0 c-58 0 -62 3 -50
48 4 14 14 22 28 22 28 0 46 18 46 47 0 19 -5 23 -30 23 -53 0 -35 46 20 52
33 3 35 5 38 46 l3 42 -104 0 c-84 0 -106 -3 -111 -15z m184 -5 c0 -5 -18 -9
-41 -8 -37 1 -68 -17 -53 -31 3 -3 9 1 14 8 8 13 19 12 65 -4 16 -5 17 -5 5 4
-13 9 -13 11 3 11 25 0 21 -27 -5 -34 -35 -9 -130 -7 -124 3 3 5 -4 20 -15 35
l-20 26 85 0 c50 0 86 -4 86 -10z m-111 -97 c1 9 5 17 10 17 16 0 20 -28 6
-47 -18 -23 -19 -62 -2 -69 17 -6 10 -64 -8 -64 -20 0 -25 24 -24 108 0 52 3
71 9 57 7 -17 9 -17 9 -2z m68 -39 c-3 -3 -12 -4 -19 -1 -8 3 -5 6 6 6 11 1
17 -2 13 -5z m-44 -34 c3 -11 1 -18 -4 -14 -5 3 -9 12 -9 20 0 20 7 17 13 -6z
m57 5 c0 -9 -6 -12 -15 -9 -8 4 -12 10 -9 15 8 14 24 10 24 -6z m8 -122 c-16
-2 -28 -9 -28 -14 0 -5 3 -8 8 -8 21 4 52 -2 52 -9 0 -9 -106 -15 -130 -7 -9
3 -16 14 -17 25 -2 18 4 20 70 19 40 -1 60 -4 45 -6z"/>
<path d="M2653 418 c-6 -7 -13 -22 -18 -33 -5 -13 -9 -15 -12 -7 -10 25 -31
11 -37 -25 -3 -21 -6 -94 -6 -162 l0 -124 53 7 c28 3 64 6 80 6 18 0 27 5 27
16 0 12 -6 15 -22 9 -13 -3 -40 -9 -60 -11 -30 -4 -38 -2 -38 11 0 8 8 15 18
16 15 0 14 2 -3 9 -16 8 -13 9 15 7 20 -1 34 -7 33 -13 -1 -7 6 -10 17 -7 11
3 20 9 20 14 0 5 7 6 15 3 8 -3 14 -9 13 -12 -3 -24 4 -42 12 -37 6 4 8 16 4
27 -4 15 -3 18 6 13 8 -5 11 -1 8 11 -3 18 -9 20 -85 23 -20 1 -22 7 -25 58
-2 37 -8 58 -17 61 -8 3 -11 0 -7 -7 4 -6 3 -11 -3 -11 -7 0 -9 -17 -5 -44 4
-36 1 -47 -15 -58 -11 -8 -21 -29 -24 -48 -4 -34 -4 -34 -5 6 -1 23 4 60 12
82 8 22 13 42 12 44 -2 1 -7 24 -10 51 -5 33 -4 47 5 47 7 0 9 -8 6 -21 -4
-16 -3 -18 9 -8 7 6 12 15 9 19 -7 11 5 41 14 36 4 -3 11 11 17 30 11 34 5 45
-13 22z"/>
<path d="M2796 415 c-3 -9 3 -19 15 -25 14 -8 18 -17 14 -31 -4 -12 -2 -19 6
-19 9 0 11 -33 6 -135 l-5 -136 86 3 87 3 3 38 3 37 -55 0 c-58 0 -62 3 -50
48 4 14 14 22 28 22 28 0 46 18 46 47 0 19 -5 23 -30 23 -53 0 -35 46 20 52
33 3 35 5 38 46 l3 42 -104 0 c-84 0 -106 -3 -111 -15z m184 -5 c0 -5 -18 -9
-41 -8 -37 1 -68 -17 -53 -31 3 -3 9 1 14 8 8 13 19 12 65 -4 16 -5 17 -5 5 4
-13 9 -13 11 3 11 25 0 21 -27 -5 -34 -35 -9 -130 -7 -124 3 3 5 -4 20 -15 35
l-20 26 85 0 c50 0 86 -4 86 -10z m-111 -97 c1 9 5 17 10 17 16 0 20 -28 6
-47 -18 -23 -19 -62 -2 -69 17 -6 10 -64 -8 -64 -20 0 -25 24 -24 108 0 52 3
71 9 57 7 -17 9 -17 9 -2z m68 -39 c-3 -3 -12 -4 -19 -1 -8 3 -5 6 6 6 11 1
17 -2 13 -5z m-44 -34 c3 -11 1 -18 -4 -14 -5 3 -9 12 -9 20 0 20 7 17 13 -6z
m57 5 c0 -9 -6 -12 -15 -9 -8 4 -12 10 -9 15 8 14 24 10 24 -6z m8 -122 c-16
-2 -28 -9 -28 -14 0 -5 3 -8 8 -8 21 4 52 -2 52 -9 0 -9 -106 -15 -130 -7 -9
3 -16 14 -17 25 -2 18 4 20 70 19 40 -1 60 -4 45 -6z"/>
<path d="M3033 423 c-9 -3 -13 -29 -13 -78 0 -49 4 -75 13 -79 10 -5 10 -7 0
-12 -9 -4 -13 -33 -13 -95 l0 -90 43 3 c41 3 42 4 45 41 3 36 4 38 21 23 16
-15 17 -14 13 17 -3 18 -1 28 4 24 5 -5 9 -25 9 -44 0 -42 25 -64 52 -47 26
16 26 32 0 56 -25 24 -26 48 0 48 10 0 13 6 9 16 -3 8 -2 13 3 10 5 -3 12 1
15 10 9 24 7 114 -3 114 -5 0 -31 20 -58 44 -46 42 -52 44 -86 36 -21 -4 -35
-4 -31 1 6 10 -3 11 -23 2z m145 -82 c-7 -9 -13 -17 -13 -18 -1 -1 -9 12 -19
30 -11 18 -13 26 -5 20 21 -21 34 -15 14 7 -10 11 -22 17 -28 13 -6 -4 -7 -1
-2 6 5 9 15 5 36 -15 24 -23 27 -30 17 -43z m-101 11 c2 -34 0 -43 -7 -32 -8
11 -10 3 -8 -27 1 -24 6 -43 10 -43 4 0 7 -21 7 -47 -1 -27 -4 -39 -6 -28 -3
11 -10 26 -16 33 -8 10 -7 16 4 23 11 7 11 9 0 9 -7 0 -11 6 -8 14 3 8 -1 20
-9 26 -8 8 -14 31 -14 60 0 50 5 60 29 60 12 0 17 -12 18 -48z m21 -114 l-2
-163 -5 145 c-6 135 -4 180 5 180 2 0 3 -73 2 -162z m72 41 c0 -10 -3 -19 -7
-19 -5 0 -18 -3 -30 -6 -21 -6 -23 -3 -23 41 l0 46 30 -21 c17 -12 30 -30 30
-41z m40 23 c0 -5 -7 -17 -15 -28 -14 -19 -14 -19 -15 2 0 11 3 24 7 27 9 10
23 9 23 -1z m-50 -68 c0 -8 -4 -12 -10 -9 -5 3 -10 2 -10 -3 0 -5 -6 -9 -13
-9 -8 0 -14 6 -14 13 0 7 3 11 7 9 3 -2 12 0 20 6 20 12 20 12 20 -7z m53 -1
c-7 -2 -19 -2 -25 0 -7 3 -2 5 12 5 14 0 19 -2 13 -5z m-16 -19 c-3 -3 -12 -4
-19 -1 -8 3 -5 6 6 6 11 1 17 -2 13 -5z m-140 -56 c6 -24 14 -51 18 -60 4 -10
3 -18 -2 -18 -10 0 -36 69 -39 103 -3 34 13 16 23 -25z m-15 -53 c3 -14 1 -25
-3 -25 -5 0 -9 11 -9 25 0 14 2 25 4 25 2 0 6 -11 8 -25z"/>
<path d="M3042 310 c0 -14 2 -19 5 -12 2 6 2 18 0 25 -3 6 -5 1 -5 -13z"/>
<path d="M690 350 c0 -5 5 -10 10 -10 6 0 10 5 10 10 0 6 -4 10 -10 10 -5 0
-10 -4 -10 -10z"/>
<path d="M2091 294 c0 -11 3 -14 6 -6 3 7 2 16 -1 19 -3 4 -6 -2 -5 -13z"/>
</g>
</svg>
