<?xml version="1.0" standalone="no"?>
<!DOCTYPE svg PUBLIC "-//W3C//DTD SVG 20010904//EN"
 "http://www.w3.org/TR/2001/REC-SVG-20010904/DTD/svg10.dtd">
<svg version="1.0" xmlns="http://www.w3.org/2000/svg"
 width="728.000000pt" height="172.000000pt" viewBox="0 0 728.000000 172.000000"
 preserveAspectRatio="xMidYMid meet">

<g transform="translate(0.000000,172.000000) scale(0.100000,-0.100000)"
fill="#000000" stroke="none">
<path d="M1188 1110 c-25 -29 -78 -34 -175 -16 -115 21 -178 20 -230 -4 -78
-35 -107 -121 -58 -174 43 -47 125 -25 125 34 0 16 -5 32 -11 35 -18 12 -24
-5 -10 -27 11 -18 10 -23 -7 -41 -26 -25 -65 -17 -89 19 -15 23 -15 30 -2 67
17 51 58 76 134 84 l55 6 0 -207 0 -206 -40 0 c-22 0 -40 -4 -40 -10 0 -6 53
-10 140 -10 87 0 140 4 140 10 0 6 -18 10 -40 10 l-40 0 0 195 0 195 68 0 c51
0 73 5 92 20 17 13 22 22 15 29 -8 8 -16 5 -27 -9z m-228 -230 c0 -171 -2
-200 -15 -200 -13 0 -15 29 -15 200 0 171 2 200 15 200 13 0 15 -29 15 -200z
m70 -5 c0 -123 -4 -195 -10 -195 -6 0 -10 72 -10 195 0 123 4 195 10 195 6 0
10 -72 10 -195z"/>
<path d="M2628 1110 c-25 -29 -78 -34 -175 -16 -115 21 -178 20 -230 -4 -78
-35 -107 -121 -58 -174 43 -47 125 -25 125 34 0 16 -5 32 -11 35 -18 12 -24
-5 -10 -27 11 -18 10 -23 -7 -41 -26 -25 -65 -17 -89 19 -15 23 -15 30 -2 67
17 51 58 76 134 84 l55 6 0 -207 0 -206 -40 0 c-22 0 -40 -4 -40 -10 0 -6 53
-10 140 -10 87 0 140 4 140 10 0 6 -18 10 -40 10 l-40 0 0 195 0 195 68 0 c51
0 73 5 92 20 17 13 22 22 15 29 -8 8 -16 5 -27 -9z m-228 -230 c0 -171 -2
-200 -15 -200 -13 0 -15 29 -15 200 0 171 2 200 15 200 13 0 15 -29 15 -200z
m70 -5 c0 -123 -4 -195 -10 -195 -6 0 -10 72 -10 195 0 123 4 195 10 195 6 0
10 -72 10 -195z"/>
<path d="M3135 860 c-36 -74 -41 -80 -70 -80 -36 0 -55 -15 -55 -44 0 -19 1
-19 13 3 14 28 26 34 45 22 11 -7 10 -16 -7 -49 -11 -22 -29 -43 -38 -45 -10
-3 5 -5 32 -4 28 0 40 2 28 4 -22 4 -22 5 -5 39 13 28 21 34 37 30 11 -3 34
-6 50 -6 23 0 34 -7 47 -29 16 -29 16 -30 -5 -34 -12 -2 19 -4 68 -4 50 0 80
2 69 4 -16 3 -41 40 -94 139 -39 73 -72 134 -74 134 -1 0 -20 -36 -41 -80z
m132 -112 c23 -43 39 -78 35 -78 -8 0 -122 212 -122 226 0 10 24 -31 87 -148z
m-40 -21 c13 -27 23 -51 21 -53 -5 -4 -98 170 -98 182 0 10 39 -56 77 -129z
m-48 14 c-14 -4 -69 20 -69 31 0 5 8 20 17 34 l17 26 22 -44 c12 -23 18 -45
13 -47z"/>
<path d="M1925 919 c-55 -3 -90 -6 -77 -7 21 -2 22 -5 22 -121 0 -116 -1 -120
-22 -124 -13 -3 34 -4 103 -4 109 2 130 5 148 21 12 11 21 29 21 41 0 43 -59
72 -88 43 -14 -14 -16 -38 -2 -38 5 0 7 6 4 14 -6 16 22 29 47 21 29 -9 34
-44 10 -68 -14 -15 -37 -22 -81 -25 l-60 -4 0 71 c0 68 1 71 24 71 13 0 27 -6
29 -12 3 -7 5 3 5 22 0 19 -2 27 -5 18 -3 -11 -14 -18 -29 -18 -22 0 -24 4
-24 45 l0 45 37 0 c28 0 43 -6 60 -27 12 -16 22 -23 23 -18 0 6 -10 21 -23 35
-21 24 -25 25 -122 19z m-38 -191 c-2 -35 -3 -7 -3 62 0 69 1 97 3 63 2 -35 2
-91 0 -125z m53 62 c0 -73 -4 -120 -10 -120 -6 0 -10 47 -10 120 0 73 4 120
10 120 6 0 10 -47 10 -120z"/>
<path d="M3600 915 c-17 -20 -9 -49 15 -53 20 -4 20 -4 0 11 -19 15 -19 17 -2
34 21 21 50 8 55 -25 3 -21 -56 -142 -69 -142 -7 0 -99 153 -99 164 0 2 10 7
23 9 12 2 -18 4 -68 4 -49 1 -83 -1 -74 -4 8 -2 48 -60 89 -129 40 -68 76
-126 80 -129 4 -3 15 6 24 19 15 24 14 28 -45 126 -33 56 -58 104 -56 106 2 3
31 -41 64 -97 l61 -101 29 44 c66 95 80 148 44 168 -28 14 -56 13 -71 -5z
m-107 -121 c37 -64 66 -118 64 -121 -2 -2 -30 40 -62 94 -32 54 -65 108 -73
121 -8 12 -10 22 -5 22 4 0 39 -52 76 -116z"/>
<path d="M3805 919 c-55 -3 -90 -6 -77 -7 21 -2 22 -5 22 -121 0 -116 -1 -120
-22 -124 -13 -3 34 -4 103 -4 109 2 130 5 148 21 12 11 21 29 21 41 0 43 -59
72 -88 43 -14 -14 -16 -38 -2 -38 5 0 7 6 4 14 -6 16 22 29 47 21 29 -9 34
-44 10 -68 -14 -15 -37 -22 -81 -25 l-60 -4 0 71 c0 68 1 71 24 71 13 0 27 -6
29 -12 3 -7 5 3 5 22 0 19 -2 27 -5 18 -3 -11 -14 -18 -29 -18 -22 0 -24 4
-24 45 l0 45 37 0 c28 0 43 -6 60 -27 12 -16 22 -23 23 -18 0 6 -10 21 -23 35
-21 24 -25 25 -122 19z m-38 -191 c-2 -35 -3 -7 -3 62 0 69 1 97 3 63 2 -35 2
-91 0 -125z m53 62 c0 -73 -4 -120 -10 -120 -6 0 -10 47 -10 120 0 73 4 120
10 120 6 0 10 -47 10 -120z"/>
<path d="M4425 919 c-55 -3 -90 -6 -77 -7 21 -2 22 -5 22 -121 0 -116 -1 -120
-22 -124 -13 -3 34 -4 103 -4 109 2 130 5 148 21 12 11 21 29 21 41 0 43 -59
72 -88 43 -14 -14 -16 -38 -2 -38 5 0 7 6 4 14 -6 16 22 29 47 21 29 -9 34
-44 10 -68 -14 -15 -37 -22 -81 -25 l-60 -4 0 71 c0 68 1 71 24 71 13 0 27 -6
29 -12 3 -7 5 3 5 22 0 19 -2 27 -5 18 -3 -11 -14 -18 -29 -18 -22 0 -24 4
-24 45 l0 45 37 0 c28 0 43 -6 60 -27 12 -16 22 -23 23 -18 0 6 -10 21 -23 35
-21 24 -25 25 -122 19z m-38 -191 c-2 -35 -3 -7 -3 62 0 69 1 97 3 63 2 -35 2
-91 0 -125z m53 62 c0 -73 -4 -120 -10 -120 -6 0 -10 47 -10 120 0 73 4 120
10 120 6 0 10 -47 10 -120z"/>
<path d="M528 913 c21 -4 22 -8 22 -123 0 -115 -1 -119 -22 -123 -13 -2 18 -4
67 -4 50 0 80 2 68 4 -22 4 -23 8 -23 123 0 115 1 119 23 123 12 2 -18 4 -68
4 -49 0 -80 -2 -67 -4z m52 -123 c0 -73 -4 -120 -10 -120 -6 0 -10 47 -10 120
0 73 4 120 10 120 6 0 10 -47 10 -120z m50 0 c0 -73 -4 -120 -10 -120 -6 0
-10 47 -10 120 0 73 4 120 10 120 6 0 10 -47 10 -120z"/>
<path d="M1258 913 c21 -4 22 -8 22 -123 0 -115 -1 -119 -22 -123 -13 -2 18
-4 67 -4 50 0 80 2 68 4 -22 4 -23 8 -23 123 0 115 1 119 23 123 12 2 -18 4
-68 4 -49 0 -80 -2 -67 -4z m52 -123 c0 -73 -4 -120 -10 -120 -6 0 -10 47 -10
120 0 73 4 120 10 120 6 0 10 -47 10 -120z m50 0 c0 -73 -4 -120 -10 -120 -6
0 -10 47 -10 120 0 73 4 120 10 120 6 0 10 -47 10 -120z"/>
<path d="M1443 913 l27 -4 0 -119 0 -119 -27 -4 c-16 -2 13 -4 62 -4 50 0 80
2 68 4 -22 4 -23 8 -23 106 l1 102 35 -75 36 -75 14 30 c8 17 23 50 33 75 l20
45 0 -102 c1 -98 0 -102 -21 -106 -13 -2 15 -4 62 -4 47 0 75 2 63 4 -22 4
-23 8 -23 123 l0 119 28 4 c15 2 -3 5 -41 6 l-67 1 -25 -57 c-14 -32 -29 -67
-34 -78 -8 -17 -14 -8 -45 58 l-37 77 -67 -1 c-37 -1 -55 -4 -39 -6z m44 -185
c-2 -35 -3 -7 -3 62 0 69 1 97 3 63 2 -35 2 -91 0 -125z m53 62 c0 -73 -4
-120 -10 -120 -6 0 -10 47 -10 120 0 73 4 120 10 120 6 0 10 -47 10 -120z
m180 0 c0 -73 -4 -120 -10 -120 -6 0 -10 47 -10 120 0 73 4 120 10 120 6 0 10
-47 10 -120z m37 -62 c-2 -35 -3 -7 -3 62 0 69 1 97 3 63 2 -35 2 -91 0 -125z"/>
<path d="M2693 913 l27 -4 0 -119 0 -119 -27 -4 c-16 -2 13 -4 62 -4 50 0 80
2 68 4 -22 4 -23 8 -23 124 0 93 3 119 14 119 30 0 76 -23 81 -42 9 -26 -21
-58 -54 -59 l-26 0 24 -12 c15 -7 35 -35 52 -74 27 -60 30 -63 64 -63 19 0 35
4 35 9 0 5 -9 7 -20 4 -26 -7 -46 10 -55 45 -3 15 -18 39 -33 55 -19 19 -22
27 -10 27 21 0 48 32 48 57 0 11 -9 28 -21 39 -18 16 -38 19 -128 20 -58 1
-94 0 -78 -3z m44 -185 c-2 -35 -3 -7 -3 62 0 69 1 97 3 63 2 -35 2 -91 0
-125z m53 62 c0 -73 -4 -120 -10 -120 -6 0 -10 47 -10 120 0 73 4 120 10 120
6 0 10 -47 10 -120z"/>
<path d="M4038 913 c21 -4 22 -8 22 -123 0 -115 -1 -119 -22 -123 -13 -2 30
-5 94 -6 129 -1 165 8 175 46 12 51 -24 85 -71 67 -17 -7 -22 -44 -6 -44 5 0
7 6 4 14 -7 18 11 29 36 21 21 -7 33 -34 25 -57 -9 -22 -50 -38 -100 -38 l-45
0 0 119 0 120 28 4 c15 2 -16 4 -68 4 -52 0 -85 -2 -72 -4z m52 -123 c0 -73
-4 -120 -10 -120 -6 0 -10 47 -10 120 0 73 4 120 10 120 6 0 10 -47 10 -120z
m50 0 c0 -73 -4 -120 -10 -120 -6 0 -10 47 -10 120 0 73 4 120 10 120 6 0 10
-47 10 -120z"/>
<path d="M4653 913 l27 -4 0 -119 0 -119 -27 -4 c-16 -2 13 -4 62 -4 50 0 80
2 68 4 -22 4 -23 8 -23 124 0 93 3 119 14 119 30 0 76 -23 81 -42 9 -26 -21
-58 -54 -59 l-26 0 24 -12 c15 -7 35 -35 52 -74 27 -60 30 -63 64 -63 19 0 35
4 35 9 0 5 -9 7 -20 4 -26 -7 -46 10 -55 45 -3 15 -18 39 -33 55 -19 19 -22
27 -10 27 21 0 48 32 48 57 0 11 -9 28 -21 39 -18 16 -38 19 -128 20 -58 1
-94 0 -78 -3z m44 -185 c-2 -35 -3 -7 -3 62 0 69 1 97 3 63 2 -35 2 -91 0
-125z m53 62 c0 -73 -4 -120 -10 -120 -6 0 -10 47 -10 120 0 73 4 120 10 120
6 0 10 -47 10 -120z"/>
</g>
</svg>
