<?xml version="1.0" standalone="no"?>
<!DOCTYPE svg PUBLIC "-//W3C//DTD SVG 20010904//EN"
 "http://www.w3.org/TR/2001/REC-SVG-20010904/DTD/svg10.dtd">
<svg version="1.0" xmlns="http://www.w3.org/2000/svg"
 width="728.000000pt" height="172.000000pt" viewBox="0 0 728.000000 172.000000"
 preserveAspectRatio="xMidYMid meet">

<g transform="translate(0.000000,172.000000) scale(0.100000,-0.100000)"
fill="#000000" stroke="none">
<path d="M610 965 c0 -24 3 -25 55 -25 l55 0 0 -140 0 -140 25 0 25 0 0 140 0
140 55 0 c52 0 55 1 55 25 l0 25 -135 0 -135 0 0 -25z"/>
<path d="M1610 965 c0 -24 3 -25 55 -25 l55 0 0 -140 0 -140 25 0 25 0 0 140
0 140 55 0 c52 0 55 1 55 25 l0 25 -135 0 -135 0 0 -25z"/>
<path d="M540 810 c0 -93 4 -150 10 -150 6 0 10 57 10 150 0 93 -4 150 -10
150 -6 0 -10 -57 -10 -150z"/>
<path d="M930 810 c0 -93 4 -150 10 -150 6 0 10 57 10 150 0 93 -4 150 -10
150 -6 0 -10 -57 -10 -150z"/>
<path d="M1026 939 c-26 -20 -26 -22 -26 -150 0 -79 4 -129 10 -129 6 0 10 47
10 120 0 107 2 122 20 140 36 36 101 20 124 -31 5 -12 7 -12 12 0 23 50 79 66
114 31 18 -18 20 -33 20 -140 0 -73 4 -120 10 -120 6 0 10 49 10 128 0 121 -1
130 -23 150 -28 27 -92 30 -118 6 -16 -15 -20 -15 -41 0 -32 23 -90 20 -122
-5z"/>
<path d="M1372 937 c-26 -28 -29 -83 -5 -109 15 -17 15 -19 0 -36 -25 -28 -22
-84 6 -110 21 -19 34 -22 120 -22 58 0 97 4 97 10 0 6 -37 10 -90 10 -77 0
-93 3 -110 20 -24 24 -25 48 -4 78 12 18 25 22 65 22 27 0 49 5 49 10 0 6 -22
10 -49 10 -40 0 -53 4 -65 22 -21 30 -20 54 4 78 17 17 33 20 110 20 53 0 90
4 90 10 0 6 -39 10 -98 10 -90 0 -100 -2 -120 -23z"/>
<path d="M1900 950 c0 -6 38 -10 94 -10 87 0 96 -2 110 -22 21 -30 20 -61 -2
-81 -15 -13 -39 -17 -110 -17 l-92 0 0 -80 c0 -47 4 -80 10 -80 6 0 10 30 10
70 l0 70 59 0 59 0 36 -70 c21 -39 44 -70 52 -70 11 0 6 16 -21 63 -40 72 -41
77 -20 77 29 0 55 38 55 80 0 68 -22 80 -140 80 -60 0 -100 -4 -100 -10z"/>
<path d="M2259 936 c-27 -27 -103 -224 -97 -252 3 -20 48 -33 48 -15 0 6 -7
11 -15 11 -21 0 -20 1 25 120 38 99 65 140 96 140 29 0 63 -50 98 -144 41
-111 42 -116 21 -116 -8 0 -15 -5 -15 -11 0 -6 10 -9 23 -7 15 2 23 11 25 28
4 37 -74 232 -100 252 -33 25 -81 23 -109 -6z"/>
<path d="M2762 937 c-26 -28 -29 -83 -5 -109 15 -17 15 -19 0 -36 -25 -28 -22
-84 6 -110 21 -19 34 -22 120 -22 58 0 97 4 97 10 0 6 -37 10 -90 10 -77 0
-93 3 -110 20 -24 24 -25 48 -4 78 12 18 25 22 65 22 27 0 49 5 49 10 0 6 -22
10 -49 10 -40 0 -53 4 -65 22 -21 30 -20 54 4 78 17 17 33 20 110 20 53 0 90
4 90 10 0 6 -39 10 -98 10 -90 0 -100 -2 -120 -23z"/>
<path d="M3000 832 c0 -121 1 -130 23 -150 21 -19 34 -22 120 -22 58 0 97 4
97 10 0 6 -37 10 -90 10 -127 0 -130 4 -130 160 0 73 -4 120 -10 120 -6 0 -10
-49 -10 -128z"/>
<path d="M3262 937 c-26 -28 -29 -83 -5 -109 15 -17 15 -19 0 -36 -25 -28 -22
-84 6 -110 21 -19 34 -22 120 -22 58 0 97 4 97 10 0 6 -37 10 -90 10 -77 0
-93 3 -110 20 -24 24 -25 48 -4 78 12 18 25 22 65 22 27 0 49 5 49 10 0 6 -22
10 -49 10 -40 0 -53 4 -65 22 -21 30 -20 54 4 78 17 17 33 20 110 20 53 0 90
4 90 10 0 6 -39 10 -98 10 -90 0 -100 -2 -120 -23z"/>
<path d="M3500 950 c0 -6 38 -10 94 -10 87 0 96 -2 110 -22 21 -30 20 -61 -2
-81 -15 -13 -39 -17 -110 -17 l-92 0 0 -80 c0 -47 4 -80 10 -80 6 0 10 30 10
70 l0 70 59 0 59 0 36 -70 c21 -39 44 -70 52 -70 11 0 6 16 -21 63 -40 72 -41
77 -20 77 29 0 55 38 55 80 0 68 -22 80 -140 80 -60 0 -100 -4 -100 -10z"/>
<path d="M2422 938 c4 -8 25 -74 48 -147 l41 -132 56 3 56 3 44 130 c45 134
49 155 34 155 -5 0 -29 -60 -53 -132 l-45 -133 -35 -3 -36 -3 -44 132 c-24 73
-50 135 -58 137 -8 3 -11 -1 -8 -10z"/>
<path d="M1140 760 c0 -5 11 -10 25 -10 14 0 25 5 25 10 0 6 -11 10 -25 10
-14 0 -25 -4 -25 -10z"/>
<path d="M2290 760 c0 -5 11 -10 25 -10 14 0 25 5 25 10 0 6 -11 10 -25 10
-14 0 -25 -4 -25 -10z"/>
</g>
</svg>
