<?xml version="1.0" standalone="no"?>
<!DOCTYPE svg PUBLIC "-//W3C//DTD SVG 20010904//EN"
 "http://www.w3.org/TR/2001/REC-SVG-20010904/DTD/svg10.dtd">
<svg version="1.0" xmlns="http://www.w3.org/2000/svg"
 width="728.000000pt" height="172.000000pt" viewBox="0 0 728.000000 172.000000"
 preserveAspectRatio="xMidYMid meet">

<g transform="translate(0.000000,172.000000) scale(0.100000,-0.100000)"
fill="#000000" stroke="none">
<path d="M1503 1037 c-23 -7 -45 -16 -50 -21 -5 -5 2 -6 17 -2 14 4 61 9 105
11 54 3 67 2 40 -3 -49 -10 -73 -22 -104 -55 -28 -31 -54 -30 -255 10 -105 21
-148 25 -237 21 -84 -3 -109 -1 -113 9 -7 16 -79 17 -109 2 -30 -15 -87 -70
-87 -83 1 -6 10 0 21 14 12 14 33 33 48 42 28 19 96 24 106 8 3 -5 2 -10 -4
-10 -25 0 -124 -44 -151 -67 -31 -26 -39 -60 -18 -81 7 -7 31 -12 55 -12 35 0
50 6 82 35 21 20 49 56 60 80 21 44 22 45 69 45 44 -1 46 -2 27 -15 -45 -34
-71 -64 -126 -150 -32 -49 -65 -100 -74 -112 -24 -34 -71 -55 -107 -48 l-30 7
21 22 c12 12 21 30 21 39 0 23 -33 22 -53 -1 -39 -43 -5 -82 70 -82 79 0 117
34 180 161 53 109 64 122 126 157 49 28 94 28 242 -3 66 -13 146 -25 177 -27
l57 -3 -20 -21 c-41 -44 -18 -84 48 -84 35 0 50 6 82 35 21 20 49 56 60 80 21
44 22 45 69 45 44 -1 46 -2 27 -15 -45 -34 -71 -64 -126 -150 -32 -49 -65
-100 -74 -112 -24 -34 -71 -55 -107 -48 l-30 7 21 22 c12 12 21 30 21 39 0 23
-33 22 -53 -1 -39 -43 -5 -82 70 -82 79 0 117 34 180 161 53 109 64 122 126
157 49 28 94 28 242 -2 112 -23 203 -31 318 -27 74 2 115 62 71 105 -26 26
-179 14 -209 -17 -7 -6 -2 -7 15 -3 14 4 59 10 101 13 70 5 78 4 88 -15 8 -16
7 -25 -8 -44 -18 -22 -25 -23 -138 -22 -87 1 -153 8 -252 29 -113 23 -150 27
-242 23 -83 -3 -109 -2 -109 8 0 42 -83 56 -177 31z m151 -45 c4 -7 -115 -52
-137 -52 -17 0 -4 20 26 39 32 20 101 29 111 13z m-770 -54 c-20 -67 -88 -118
-130 -99 -48 22 -25 64 56 100 62 28 83 28 74 -1z m746 -48 c-31 -43 -76 -65
-106 -51 -30 13 -31 42 -3 67 21 19 121 36 127 22 2 -4 -6 -21 -18 -38z"/>
<path d="M2420 923 c-23 -27 -56 -68 -73 -93 -62 -92 -140 -160 -184 -160 -13
0 -6 11 25 36 42 36 54 64 27 64 -8 0 -33 -16 -55 -36 -42 -38 -64 -39 -41 -2
17 27 0 45 -23 23 -9 -9 -16 -23 -16 -30 0 -14 -46 -55 -61 -55 -5 0 3 18 17
40 20 30 24 44 16 52 -11 11 -13 10 -109 -68 -24 -19 -33 -22 -33 -12 0 8 9
23 20 33 11 10 20 23 20 29 0 17 -59 17 -86 0 -13 -9 -24 -13 -24 -10 0 4 -21
-9 -46 -29 -62 -46 -77 -47 -52 -2 15 27 19 75 7 83 -5 3 -14 -6 -20 -20 -7
-14 -23 -33 -36 -42 -34 -22 -21 -30 14 -8 l28 18 -24 -26 c-26 -29 -23 -58 6
-58 10 0 34 11 54 24 l36 25 -5 -25 c-4 -23 -3 -24 56 -21 61 4 71 8 126 56
l29 26 -16 -25 c-39 -57 0 -82 57 -36 32 27 62 24 70 -6 4 -18 10 -20 41 -15
19 3 48 15 64 26 29 21 29 21 24 1 -7 -28 22 -36 62 -17 30 14 34 14 39 0 9
-23 71 -10 115 25 52 41 70 49 42 19 -26 -28 -23 -57 6 -57 21 0 123 68 123
82 0 5 -21 -7 -46 -27 -62 -46 -77 -47 -52 -2 15 26 19 75 7 82 -4 3 -13 -5
-20 -17 -20 -40 -100 -98 -134 -98 -16 0 -11 8 23 36 42 36 55 64 28 64 -8 0
-34 -16 -58 -36 -48 -41 -85 -60 -94 -51 -12 11 33 69 82 106 57 43 130 142
121 165 -11 27 -34 18 -77 -31z m16 -51 c-20 -28 -48 -57 -62 -67 l-26 -17 18
32 c26 43 93 115 100 107 4 -3 -10 -28 -30 -55z m-535 -150 c-14 -26 -38 -45
-51 -40 -15 5 27 58 46 58 11 0 12 -4 5 -18z"/>
<path d="M667 923 c-12 -11 -7 -33 7 -33 12 0 26 20 26 36 0 7 -26 5 -33 -3z"/>
<path d="M1057 923 c-12 -11 -7 -33 7 -33 12 0 26 20 26 36 0 7 -26 5 -33 -3z"/>
<path d="M531 723 c-35 -52 -37 -61 -17 -69 19 -7 65 18 96 51 l25 28 -43 -28
c-23 -15 -45 -26 -47 -23 -3 3 6 21 19 41 22 33 24 47 5 47 -4 0 -21 -21 -38
-47z"/>
<path d="M921 723 c-35 -52 -37 -61 -17 -69 17 -7 48 8 99 49 52 41 40 45 -17
6 -25 -18 -48 -30 -51 -27 -3 3 6 21 19 41 22 33 24 47 5 47 -4 0 -21 -21 -38
-47z"/>
<path d="M1117 754 c-18 -10 -27 -11 -27 -4 0 19 -43 6 -46 -13 -1 -9 -15 -32
-30 -50 -40 -47 -5 -50 37 -2 57 65 104 74 55 11 -41 -54 -11 -55 43 -2 51 51
94 66 47 17 -42 -43 -15 -82 34 -51 9 5 19 5 27 -2 21 -17 78 0 119 38 41 37
33 36 -25 -3 -19 -13 -43 -23 -55 -23 -17 0 -14 6 22 36 42 36 54 64 27 64 -8
0 -40 -23 -71 -51 -55 -50 -88 -61 -46 -16 42 44 15 75 -39 47 -11 -6 -19 -7
-19 -1 0 17 -25 19 -53 5z"/>
</g>
</svg>
