<?xml version="1.0" standalone="no"?>
<!DOCTYPE svg PUBLIC "-//W3C//DTD SVG 1.1//EN" "http://www.w3.org/Graphics/SVG/1.1/DTD/svg11.dtd">
<svg width="100%" height="100%" viewBox="0 0 100 100" version="1.1" xmlns="http://www.w3.org/2000/svg" xmlns:xlink="http://www.w3.org/1999/xlink" xml:space="preserve" style="fill-rule:evenodd;clip-rule:evenodd;stroke-linejoin:round;stroke-miterlimit:1.41421;">
    <g transform="matrix(-0.328868,1.05772e-16,-1.05772e-16,-0.328868,235.404,150.873)">
        <path d="M449.784,277.244C409.603,317.425 409.602,382.566 449.784,422.747C489.964,462.928 555.104,462.925 595.284,422.745C608.675,409.355 617.5,393.174 621.969,376.085L622.07,376.07C622.07,376.07 622.179,375.446 622.339,374.562C623.026,371.75 623.601,368.924 624.052,366.081C628.033,348.041 638.309,310.422 657.377,294.772C664.548,287.601 666.74,277.481 664.113,268.604L677.584,255.132C673.628,251.205 670.839,248.165 663.808,241.395C651.946,229.923 630.564,210.516 613.398,198.955L603.823,208.529C595.02,206.048 585.05,208.26 577.957,215.353C562.43,234.275 525.189,244.421 506.935,248.411C503.889,248.873 500.875,249.475 497.883,250.212C497.046,250.36 496.46,250.46 496.46,250.46L496.445,250.561C479.36,255.026 463.174,263.854 449.784,277.244ZM585.337,223.751L590.875,229.288L606.07,209.028C618.137,215.348 629.465,223.578 639.605,233.719C649.746,243.859 657.976,255.186 664.295,267.254L644.035,282.449L649.573,287.986L639.605,297.954L629.638,287.986L568.725,375.48C568.725,375.48 511.134,371.05 475.694,406.49L473.479,404.275L531.714,346.04C536.275,347.973 542.856,348.188 546.574,344.469C551.468,339.576 551.468,331.643 546.574,326.749C541.681,321.856 533.748,321.856 528.854,326.749C525.136,330.467 524.243,335.941 526.176,340.503L467.942,398.737L466.834,397.63C502.274,362.189 497.844,304.599 497.844,304.599L585.337,243.686L575.37,233.719L585.337,223.751ZM684.484,248.232L691.487,241.23C688.536,238.242 683.132,232.801 677.401,227.284C665.609,215.885 644.412,196.639 627.296,185.056L620.146,192.207C638.069,204.236 658.404,222.751 670.544,234.408C676.271,239.921 681.541,245.237 684.484,248.232ZM698.334,234.383L705.351,227.366C702.476,224.446 696.913,218.849 691.011,213.159C679.286,201.82 658.274,182.742 641.22,171.133L634.046,178.307C651.891,190.34 672.07,208.7 684.135,220.291C690.044,225.977 695.456,231.448 698.334,234.383ZM711.898,220.212C712.769,217.109 715.415,205.785 709.368,199.738L709.135,199.504C709.201,199.025 709.399,198.581 709.313,198.068C708.027,190.211 711.313,187.498 710.742,184.07C710.17,180.641 700.887,171.644 700.887,171.644C700.887,171.644 691.888,162.358 688.46,161.788C685.031,161.216 682.319,164.503 674.461,163.216C673.948,163.13 673.504,163.328 673.024,163.394L672.797,163.167C665.754,156.124 651.467,160.886 651.467,160.886L647.963,164.39C665.737,176.422 685.746,194.647 697.74,206.167C703.615,211.827 709.005,217.265 711.898,220.212Z" style="fill:none;stroke-width:4.56px;stroke:url(#_Linear1);"/>
    </g>
    <defs>
        <linearGradient id="_Linear1" x1="0" y1="0" x2="1" y2="0" gradientUnits="userSpaceOnUse" gradientTransform="matrix(293.58,0,0,293.569,419.648,306.097)"><stop offset="0%" style="stop-color:rgb(103,135,195);stop-opacity:1"/><stop offset="100%" style="stop-color:rgb(184,232,139);stop-opacity:1"/></linearGradient>
    </defs>
</svg>
