<?xml version="1.0" standalone="no"?>
<!DOCTYPE svg PUBLIC "-//W3C//DTD SVG 20010904//EN"
 "http://www.w3.org/TR/2001/REC-SVG-20010904/DTD/svg10.dtd">
<svg version="1.0" xmlns="http://www.w3.org/2000/svg"
 width="728.000000pt" height="172.000000pt" viewBox="0 0 728.000000 172.000000"
 preserveAspectRatio="xMidYMid meet">

<g transform="translate(0.000000,172.000000) scale(0.100000,-0.100000)"
fill="#000000" stroke="none">
<path d="M4121 1129 c-1 -12 -14 -19 -46 -23 -47 -8 -56 -19 -28 -34 32 -18
30 -364 -3 -396 -8 -8 -14 -16 -14 -18 0 -6 131 -1 137 6 4 3 -1 6 -10 6 -15
0 -17 21 -18 213 -1 116 -5 223 -9 237 -5 14 -8 18 -9 9z m-33 -53 c6 -58 7
-156 0 -156 -4 0 -8 30 -8 66 0 36 -4 73 -9 83 -7 13 -6 18 3 18 7 0 13 -5 14
-11z m5 -186 c3 -11 1 -20 -4 -20 -5 0 -9 9 -9 20 0 11 2 20 4 20 2 0 6 -9 9
-20z m-1 -112 c-3 -91 -6 -108 -22 -108 -7 0 -8 6 0 19 5 11 10 54 10 95 0 42
3 76 8 76 4 0 6 -37 4 -82z"/>
<path d="M724 1093 c16 -4 18 -12 14 -54 -5 -52 6 -64 23 -26 15 33 73 69 105
65 47 -5 55 -35 52 -195 -2 -78 0 -145 5 -149 13 -14 8 -54 -8 -54 -12 0 -13
4 -5 19 17 34 11 36 -19 7 -26 -25 -39 -29 -113 -33 -46 -3 -85 -7 -87 -9 -2
-2 98 -4 222 -4 126 1 227 5 227 10 0 5 -12 8 -27 8 -49 -1 -93 13 -108 35
-12 17 -15 55 -15 179 0 151 1 157 22 172 12 9 33 16 45 16 25 0 93 -62 93
-85 0 -8 5 -15 11 -15 7 0 10 20 7 55 -1 31 1 57 7 59 6 3 -98 4 -230 4 -132
0 -232 -2 -221 -5z m214 -79 c-3 -27 -4 -26 -9 8 -3 22 -1 34 4 29 5 -5 7 -21
5 -37z m12 -141 c0 -5 -5 -15 -10 -23 -8 -12 -10 -11 -10 8 0 12 5 22 10 22 6
0 10 -3 10 -7z m-13 -80 c-3 -10 -5 -4 -5 12 0 17 2 24 5 18 2 -7 2 -21 0 -30z
m7 -38 c-4 -8 -8 -15 -10 -15 -2 0 -4 7 -4 15 0 8 4 15 10 15 5 0 7 -7 4 -15z"/>
<path d="M2284 1093 c16 -4 18 -12 14 -54 -5 -52 6 -64 23 -26 15 33 73 69
105 65 47 -5 55 -35 52 -195 -2 -78 0 -145 5 -149 13 -14 8 -54 -8 -54 -12 0
-13 4 -5 19 17 34 11 36 -19 7 -26 -25 -39 -29 -113 -33 -46 -3 -85 -7 -87 -9
-2 -2 98 -4 222 -4 126 1 227 5 227 10 0 5 -12 8 -27 8 -49 -1 -93 13 -108 35
-12 17 -15 55 -15 179 0 151 1 157 22 172 12 9 33 16 45 16 25 0 93 -62 93
-85 0 -8 5 -15 11 -15 7 0 10 20 7 55 -1 31 1 57 7 59 6 3 -98 4 -230 4 -132
0 -232 -2 -221 -5z m214 -79 c-3 -27 -4 -26 -9 8 -3 22 -1 34 4 29 5 -5 7 -21
5 -37z m12 -141 c0 -5 -5 -15 -10 -23 -8 -12 -10 -11 -10 8 0 12 5 22 10 22 6
0 10 -3 10 -7z m-13 -80 c-3 -10 -5 -4 -5 12 0 17 2 24 5 18 2 -7 2 -21 0 -30z
m7 -38 c-4 -8 -8 -15 -10 -15 -2 0 -4 7 -4 15 0 8 4 15 10 15 5 0 7 -7 4 -15z"/>
<path d="M550 1040 c-17 -32 5 -63 41 -58 24 4 29 1 30 -16 1 -12 5 -3 8 19 4
22 3 48 -1 58 -12 24 -64 23 -78 -3z"/>
<path d="M1250 1040 c-17 -32 5 -63 41 -58 24 4 29 1 30 -16 1 -12 5 -3 8 19
4 22 3 48 -1 58 -12 24 -64 23 -78 -3z"/>
<path d="M2872 973 l-2 -43 -62 -1 c-35 0 -56 -3 -48 -6 42 -16 51 -40 49
-131 -2 -72 -5 -91 -22 -109 l-20 -23 81 0 c80 0 107 12 57 24 -24 6 -25 9
-25 89 0 58 5 89 15 103 19 25 19 40 0 24 -12 -10 -15 -9 -15 5 0 13 5 16 23
11 12 -3 28 -6 35 -6 7 0 12 -15 12 -39 0 -44 20 -59 46 -34 11 11 14 27 11
50 -4 22 -2 33 6 34 7 0 3 4 -8 8 -11 5 -43 6 -72 4 l-52 -5 -4 44 -4 43 -1
-42z m-43 -87 c-3 -3 -11 5 -18 17 -13 21 -12 21 5 5 10 -10 16 -20 13 -22z
m4 -106 c-7 -28 -13 -25 -13 6 0 14 4 23 9 20 5 -3 7 -15 4 -26z"/>
<path d="M4632 973 l-2 -43 -62 -1 c-35 0 -56 -3 -48 -6 42 -16 51 -40 49
-131 -2 -72 -5 -91 -22 -109 l-20 -23 81 0 c80 0 107 12 57 24 -24 6 -25 9
-25 89 0 58 5 89 15 103 19 25 19 40 0 24 -12 -10 -15 -9 -15 5 0 13 5 16 23
11 12 -3 28 -6 35 -6 7 0 12 -15 12 -39 0 -44 20 -59 46 -34 11 11 14 27 11
50 -4 22 -2 33 6 34 7 0 3 4 -8 8 -11 5 -43 6 -72 4 l-52 -5 -4 44 -4 43 -1
-42z m-43 -87 c-3 -3 -11 5 -18 17 -13 21 -12 21 5 5 10 -10 16 -20 13 -22z
m4 -106 c-7 -28 -13 -25 -13 6 0 14 4 23 9 20 5 -3 7 -15 4 -26z"/>
<path d="M1811 943 c-1 -9 -22 -13 -70 -13 -46 0 -71 -4 -74 -12 -4 -10 -6
-10 -6 0 -1 8 -18 12 -53 12 -43 0 -57 -5 -80 -27 l-28 -27 0 27 c0 24 -4 27
-32 26 -18 0 -41 -4 -51 -8 -17 -6 -17 -8 -3 -20 13 -11 16 -34 16 -107 0 -83
-2 -95 -22 -114 l-22 -20 51 0 c32 0 53 -5 56 -12 4 -10 6 -10 6 0 1 6 11 12
23 12 l21 0 -21 23 c-19 20 -22 35 -22 98 0 66 3 78 23 96 34 31 45 35 67 23
18 -10 20 -21 20 -116 0 -62 4 -103 9 -99 5 3 13 0 17 -6 5 -9 -1 -10 -19 -5
-14 3 -29 2 -32 -4 -4 -6 22 -10 71 -10 l78 0 -22 20 c-17 16 -22 32 -22 75 0
29 -3 60 -6 69 -8 21 59 89 83 84 49 -9 57 -210 11 -240 -7 -4 20 -8 61 -8 72
0 74 1 57 19 -13 14 -19 44 -23 112 -3 52 -10 102 -15 112 -5 11 -5 17 2 17 5
0 10 8 9 18 0 10 -3 12 -6 5 -2 -7 -13 -13 -23 -13 -10 0 -21 6 -23 13 -4 10
-6 10 -6 0z m-103 -48 c-12 -14 -23 -25 -25 -25 -2 0 -3 11 -3 25 0 20 5 25
25 25 l25 0 -22 -25z m-254 -96 c0 -44 -2 -79 -6 -79 -5 0 -8 36 -8 79 0 44
-3 88 -6 98 -5 17 -5 17 6 -1 7 -10 13 -54 14 -97z m182 21 c2 -31 0 -49 -6
-45 -6 3 -10 29 -10 57 0 65 11 56 16 -12z m191 -77 c-2 -21 -4 -4 -4 37 0 41
2 58 4 38 2 -21 2 -55 0 -75z m-370 -53 c1 -11 -4 -20 -13 -20 -16 0 -16 2 -8
24 8 22 19 20 21 -4z m369 -17 c-10 -10 -19 5 -10 18 6 11 8 11 12 0 2 -7 1
-15 -2 -18z"/>
<path d="M514 931 c-9 -9 -3 -19 16 -24 18 -5 20 -14 20 -102 0 -91 -1 -97
-26 -120 l-27 -25 88 0 88 0 -21 23 c-20 21 -22 34 -22 140 l0 117 -56 -2
c-30 -2 -57 -5 -60 -7z m61 -120 c0 -55 -4 -103 -8 -107 -4 -4 -7 41 -7 99 0
59 3 107 8 107 4 0 7 -45 7 -99z"/>
<path d="M858 933 c6 -2 18 -2 25 0 6 3 1 5 -13 5 -14 0 -19 -2 -12 -5z"/>
<path d="M1214 931 c-9 -9 -3 -19 16 -24 18 -5 20 -14 20 -102 0 -91 -1 -97
-26 -120 l-27 -25 88 0 88 0 -21 23 c-20 21 -22 34 -22 140 l0 117 -56 -2
c-30 -2 -57 -5 -60 -7z m61 -120 c0 -55 -4 -103 -8 -107 -4 -4 -7 41 -7 99 0
59 3 107 8 107 4 0 7 -45 7 -99z"/>
<path d="M2005 930 c-45 -5 -51 -7 -22 -8 l38 -2 -22 -22 c-47 -50 -56 -75
-48 -130 6 -39 16 -58 36 -75 61 -50 140 -49 196 2 34 33 35 43 1 16 -58 -46
-136 -13 -152 64 l-9 40 100 -3 99 -3 -7 33 c-3 18 -18 43 -31 56 l-25 22 37
0 c63 0 33 7 -51 12 -44 3 -107 2 -140 -2z m105 -20 c10 -5 23 -23 28 -40 l11
-30 -60 0 c-66 0 -73 10 -38 54 22 28 31 31 59 16z m-112 -47 c-9 -10 -18 -25
-21 -33 -5 -13 -6 -13 -6 0 -1 19 29 64 37 56 3 -3 -2 -14 -10 -23z m-18 -96
c0 -10 -4 -15 -10 -12 -5 3 -10 18 -10 33 0 21 2 24 10 12 5 -8 10 -23 10 -33z
m54 -86 c-2 -3 -12 3 -22 13 -16 17 -16 18 5 5 12 -7 20 -15 17 -18z"/>
<path d="M2418 933 c6 -2 18 -2 25 0 6 3 1 5 -13 5 -14 0 -19 -2 -12 -5z"/>
<path d="M3135 930 c-16 -4 -26 -8 -21 -9 5 0 1 -10 -8 -20 -22 -24 -13 -61
15 -61 12 0 24 12 33 34 24 57 49 56 61 -4 l6 -35 -51 -12 c-73 -17 -110 -46
-110 -86 0 -18 7 -42 15 -54 14 -20 24 -21 135 -22 66 0 120 2 120 5 0 3 -10
18 -21 34 -19 24 -21 37 -16 83 11 92 -18 140 -94 150 -19 3 -47 2 -64 -3z
m102 -87 c-3 -10 -5 -4 -5 12 0 17 2 24 5 18 2 -7 2 -21 0 -30z m-17 -88 c0
-47 -16 -65 -60 -65 -43 0 -38 70 8 94 44 25 52 20 52 -29z m20 -50 c0 -29 -2
-34 -13 -23 -10 9 -11 17 -3 35 14 30 16 29 16 -12z m-140 -21 c0 -3 -7 -1
-15 6 -8 7 -15 17 -15 22 0 5 7 3 15 -6 8 -8 15 -18 15 -22z"/>
<path d="M3367 933 c-4 -3 1 -16 12 -27 10 -12 44 -69 75 -128 l57 -107 -78
-4 c-43 -1 -1 -3 92 -3 94 0 135 2 93 3 -90 4 -88 -11 -14 146 26 54 52 97 60
97 8 0 17 7 20 16 5 12 2 15 -10 10 -8 -3 -34 -6 -57 -6 -39 -1 -40 -2 -23
-15 18 -14 18 -16 -9 -80 -15 -36 -32 -65 -37 -65 -5 0 -22 28 -39 63 -29 61
-29 62 -9 76 11 7 20 17 20 22 0 10 -143 12 -153 2z m63 -58 c0 -5 -9 1 -20
15 -11 14 -20 30 -20 35 0 6 9 -1 20 -15 11 -14 20 -29 20 -35z m30 -59 c0
-12 -5 -7 -19 24 -11 24 -11 24 3 6 9 -11 16 -24 16 -30z m49 -63 c2 -2 -3 -3
-11 -3 -9 0 -19 7 -22 16 -6 15 -4 15 11 3 10 -7 20 -15 22 -16z"/>
<path d="M3775 930 c-45 -5 -51 -7 -22 -8 l38 -2 -22 -22 c-47 -50 -56 -75
-48 -130 6 -39 16 -58 36 -75 61 -50 140 -49 196 2 34 33 35 43 1 16 -58 -46
-136 -13 -152 64 l-9 40 100 -3 99 -3 -7 33 c-3 18 -18 43 -31 56 l-25 22 37
0 c63 0 33 7 -51 12 -44 3 -107 2 -140 -2z m105 -20 c10 -5 23 -23 28 -40 l11
-30 -60 0 c-66 0 -73 10 -38 54 22 28 31 31 59 16z m-112 -47 c-9 -10 -18 -25
-21 -33 -5 -13 -6 -13 -6 0 -1 19 29 64 37 56 3 -3 -2 -14 -10 -23z m-18 -96
c0 -10 -4 -15 -10 -12 -5 3 -10 18 -10 33 0 21 2 24 10 12 5 -8 10 -23 10 -33z
m54 -86 c-2 -3 -12 3 -22 13 -16 17 -16 18 5 5 12 -7 20 -15 17 -18z"/>
<path d="M4275 930 c-45 -5 -51 -7 -22 -8 l38 -2 -22 -22 c-47 -50 -56 -75
-48 -130 6 -39 16 -58 36 -75 61 -50 140 -49 196 2 34 33 35 43 1 16 -58 -46
-136 -13 -152 64 l-9 40 100 -3 99 -3 -7 33 c-3 18 -18 43 -31 56 l-25 22 37
0 c63 0 33 7 -51 12 -44 3 -107 2 -140 -2z m105 -20 c10 -5 23 -23 28 -40 l11
-30 -60 0 c-66 0 -73 10 -38 54 22 28 31 31 59 16z m-112 -47 c-9 -10 -18 -25
-21 -33 -5 -13 -6 -13 -6 0 -1 19 29 64 37 56 3 -3 -2 -14 -10 -23z m-18 -96
c0 -10 -4 -15 -10 -12 -5 3 -10 18 -10 33 0 21 2 24 10 12 5 -8 10 -23 10 -33z
m54 -86 c-2 -3 -12 3 -22 13 -16 17 -16 18 5 5 12 -7 20 -15 17 -18z"/>
<path d="M3063 923 c9 -2 23 -2 30 0 6 3 -1 5 -18 5 -16 0 -22 -2 -12 -5z"/>
</g>
</svg>
